<svg width="857" height="151" viewBox="0 0 857 151" fill="none" xmlns="http://www.w3.org/2000/svg">
<path d="M11.4515 140.139L11.4627 140.151L11.474 140.162C17.0803 145.697 23.8617 148.5 31.6875 148.5H77.7812C85.6078 148.5 92.3629 145.696 97.9084 140.151C103.512 134.547 106.355 127.762 106.355 119.926V31.8398C106.355 24.0082 103.515 17.2536 97.9086 11.7128C92.3677 6.1062 85.613 3.26562 77.7812 3.26562H31.6875C23.8514 3.26562 17.0665 6.10888 11.4627 11.7127C5.91722 17.2582 3.11328 24.0133 3.11328 31.8398V119.926C3.11328 127.752 5.91618 134.533 11.4515 140.139ZM84.2895 25.2818L84.3141 25.307L84.3393 25.3316C86.2012 27.1417 87.0977 29.2631 87.0977 31.8398V119.926C87.0977 122.505 86.1988 124.672 84.3143 126.556C82.5098 128.361 80.381 129.242 77.7812 129.242H31.6875C30.9575 129.242 30.2622 129.17 29.5977 129.028V48.2461C29.5977 40.7008 27.335 34.3628 22.6821 29.4548C23.1096 27.8266 23.9024 26.4612 25.0568 25.3068C26.9413 23.4223 29.1088 22.5234 31.6875 22.5234H77.7812C80.358 22.5234 82.4794 23.4199 84.2895 25.2818Z" stroke="#10E956" stroke-width="5"/>
<path d="M21.8711 26.0735L86.5977 78.9245V146V148.5H89.0977H103.355H105.855V146V5.76562V3.26562H103.355H89.0977H86.5977V5.76562V54.1083L25.0543 3.82958L24.364 3.26562H23.4727H5.11328H2.61328V5.76562V146V148.5H5.11328H26.5977H29.0977V146V48.4414C29.0977 40.7172 26.7344 34.2637 21.8711 29.3204V26.0735Z" stroke="#10E956" stroke-width="5"/>
<path d="M89.0977 3.26562H86.5977V5.76562V48.1006L54.2334 65.0533L29.0977 51.9081V48.2461C29.0977 40.5219 26.7344 34.0684 21.8711 29.1251V5.76562V3.26562H19.3711H5.11328H2.61328V5.76562V58.1094V59.6026L3.92803 60.3106L7.73663 62.3613L7.74878 62.3679L7.76101 62.3743L44.6055 81.6917V146V148.5H47.1055H68.5898H71.0898V146V105.277C71.0898 97.5047 68.7341 91.0415 63.8633 86.1469V81.69L104.519 60.3223L105.855 59.6197V58.1094V5.76562V3.26562H103.355H89.0977Z" stroke="#10E956" stroke-width="5"/>
<path d="M106.355 5.76562V3.26562H103.855H31.6875C23.8514 3.26562 17.0665 6.10888 11.4627 11.7127C5.91722 17.2582 3.11328 24.0133 3.11328 31.8398V119.926C3.11328 127.752 5.91618 134.533 11.4515 140.139L11.4627 140.151L11.474 140.162C17.0803 145.697 23.8617 148.5 31.6875 148.5H103.855H106.355V146V131.742V129.242H103.855H31.6875C31.51 129.242 31.3342 129.237 31.1602 129.228V85.5117H91.9414H94.4414V83.0117V68.7539V66.2539H91.9414H31.1602V48.2461C31.1602 43.8268 30.2846 39.8836 28.4204 36.5144C26.9695 33.738 25.1847 30.9826 23.0757 28.2473C23.5526 27.1241 24.213 26.1507 25.0568 25.3068C26.9413 23.4223 29.1088 22.5234 31.6875 22.5234H103.855H106.355V20.0234V5.76562Z" stroke="#10E956" stroke-width="5"/>
<path d="M3.11328 146V148.5H5.61328H77.7812C85.6078 148.5 92.3629 145.696 97.9084 140.151C103.512 134.547 106.355 127.762 106.355 119.926V31.8398C106.355 24.0082 103.515 17.2536 97.9086 11.7128C92.3677 6.1062 85.613 3.26562 77.7812 3.26562H5.61328H3.11328V5.76562V146ZM84.2895 25.2818L84.3141 25.307L84.3393 25.3316C86.2012 27.1417 87.0977 29.2631 87.0977 31.8398V119.926C87.0977 122.505 86.1988 124.672 84.3143 126.556C82.5098 128.361 80.381 129.242 77.7812 129.242H31.1602V48.2461C31.1602 43.6861 30.2478 39.6315 28.3033 36.1864C26.6631 33.2228 24.683 30.2496 22.3711 27.2664V22.5234H77.7812C80.358 22.5234 82.4794 23.4199 84.2895 25.2818Z" stroke="#10E956" stroke-width="5"/>
<path d="M22.6523 5.76562V3.26562H20.1523H5.89453H3.39453V5.76562V146V148.5H5.89453H27.3789H29.8789V146V48.2461C29.8789 40.5219 27.5156 34.0684 22.6523 29.1251V5.76562Z" stroke="#10E956" stroke-width="5"/>
<path d="M103.355 148.5H105.855V146V94.8281C105.855 87.0002 103.018 80.2483 97.4164 74.7089C95.7732 73.0176 93.9454 71.565 91.9379 70.3529C94.1876 66.2887 95.3086 61.8018 95.3086 56.9375V5.76562V3.26562H92.8086H78.6484H76.1484V5.76562V56.9375C76.1484 59.5105 75.2535 61.6741 73.3775 63.5557C71.5011 65.3745 69.3299 66.2539 66.7344 66.2539H29.0977V48.2461C29.0977 40.5219 26.7344 34.0684 21.8711 29.1251V5.76562V3.26562H19.3711H5.11328H2.61328V5.76562V146V148.5H5.11328H26.5977H29.0977V146V85.5117H77.2812C79.858 85.5117 81.9794 86.4081 83.7895 88.27L83.8141 88.2953L83.8393 88.3198C85.7012 90.13 86.5977 92.2514 86.5977 94.8281V146V148.5H89.0977H103.355Z" stroke="#10E956" stroke-width="5"/>
<path d="M103.355 148.5H105.855V146V31.8398C105.855 24.0082 103.015 17.2536 97.4086 11.7128C91.8677 6.1062 85.113 3.26562 77.2812 3.26562H31.1875C23.3514 3.26562 16.5665 6.10888 10.9627 11.7127C5.41722 17.2582 2.61328 24.0133 2.61328 31.8398V146V148.5H5.11328H26.5977H29.0977V146V85.5117H86.5977V146V148.5H89.0977H103.355ZM83.7895 25.2818L83.8141 25.307L83.8393 25.3316C85.7012 27.1417 86.5977 29.2631 86.5977 31.8398V66.2539H29.0977V48.2461C29.0977 40.7008 26.835 34.3628 22.1821 29.4548C22.6096 27.8266 23.4024 26.4612 24.5568 25.3068C26.4413 23.4223 28.6088 22.5234 31.1875 22.5234H77.2812C79.858 22.5234 81.9794 23.4199 83.7895 25.2818Z" stroke="#10E956" stroke-width="5"/>
</svg>
